<mxfile host="app.diagrams.net" modified="2023-05-24T15:40:14.851Z" agent="Mozilla/5.0 (Windows NT 10.0; Win64; x64) AppleWebKit/537.36 (KHTML, like Gecko) Chrome/113.0.0.0 Safari/537.36" etag="X7PtQN0sd9b2PvwnUicY" version="21.3.3" type="device">
  <diagram name="Page-1" id="owC3JuDTchMDbREdcmmw">
    <mxGraphModel dx="1013" dy="1093" grid="0" gridSize="10" guides="1" tooltips="1" connect="1" arrows="1" fold="1" page="0" pageScale="1" pageWidth="827" pageHeight="1169" math="0" shadow="0">
      <root>
        <mxCell id="0" />
        <mxCell id="1" parent="0" />
        <mxCell id="uxkh0u8G8FAY5bMfTTRx-1" value="" style="rounded=1;whiteSpace=wrap;html=1;fontSize=16;" vertex="1" parent="1">
          <mxGeometry x="114" y="-83" width="195" height="118" as="geometry" />
        </mxCell>
        <mxCell id="uxkh0u8G8FAY5bMfTTRx-2" value="" style="rounded=1;whiteSpace=wrap;html=1;fontSize=16;" vertex="1" parent="1">
          <mxGeometry x="-45" y="73" width="195" height="118" as="geometry" />
        </mxCell>
        <mxCell id="uxkh0u8G8FAY5bMfTTRx-3" value="" style="rounded=1;whiteSpace=wrap;html=1;fontSize=16;" vertex="1" parent="1">
          <mxGeometry x="271" y="73" width="195" height="118" as="geometry" />
        </mxCell>
        <mxCell id="uxkh0u8G8FAY5bMfTTRx-18" value="" style="edgeStyle=none;curved=1;rounded=0;orthogonalLoop=1;jettySize=auto;html=1;fontSize=12;startSize=8;endSize=8;" edge="1" parent="1" source="uxkh0u8G8FAY5bMfTTRx-4">
          <mxGeometry relative="1" as="geometry">
            <mxPoint x="50" y="217" as="targetPoint" />
          </mxGeometry>
        </mxCell>
        <mxCell id="uxkh0u8G8FAY5bMfTTRx-4" value="" style="rounded=1;whiteSpace=wrap;html=1;fontSize=16;" vertex="1" parent="1">
          <mxGeometry x="-45" y="293" width="195" height="118" as="geometry" />
        </mxCell>
        <mxCell id="uxkh0u8G8FAY5bMfTTRx-17" style="edgeStyle=none;curved=1;rounded=0;orthogonalLoop=1;jettySize=auto;html=1;fontSize=12;startSize=8;endSize=8;" edge="1" parent="1" source="uxkh0u8G8FAY5bMfTTRx-5">
          <mxGeometry relative="1" as="geometry">
            <mxPoint x="368.4999999999998" y="215.2353300206803" as="targetPoint" />
          </mxGeometry>
        </mxCell>
        <mxCell id="uxkh0u8G8FAY5bMfTTRx-5" value="" style="rounded=1;whiteSpace=wrap;html=1;fontSize=16;" vertex="1" parent="1">
          <mxGeometry x="271" y="293" width="195" height="118" as="geometry" />
        </mxCell>
        <mxCell id="uxkh0u8G8FAY5bMfTTRx-8" value="" style="endArrow=none;html=1;rounded=0;fontSize=12;startSize=8;endSize=8;curved=1;" edge="1" parent="1">
          <mxGeometry width="50" height="50" relative="1" as="geometry">
            <mxPoint x="114" y="-61" as="sourcePoint" />
            <mxPoint x="310" y="-61" as="targetPoint" />
          </mxGeometry>
        </mxCell>
        <mxCell id="uxkh0u8G8FAY5bMfTTRx-9" value="" style="endArrow=none;html=1;rounded=0;fontSize=12;startSize=8;endSize=8;curved=1;" edge="1" parent="1">
          <mxGeometry width="50" height="50" relative="1" as="geometry">
            <mxPoint x="113.5" y="1" as="sourcePoint" />
            <mxPoint x="309.5" y="1" as="targetPoint" />
          </mxGeometry>
        </mxCell>
        <mxCell id="uxkh0u8G8FAY5bMfTTRx-10" value="" style="endArrow=none;html=1;rounded=0;fontSize=12;startSize=8;endSize=8;curved=1;" edge="1" parent="1">
          <mxGeometry width="50" height="50" relative="1" as="geometry">
            <mxPoint x="-46" y="97" as="sourcePoint" />
            <mxPoint x="150" y="97" as="targetPoint" />
          </mxGeometry>
        </mxCell>
        <mxCell id="uxkh0u8G8FAY5bMfTTRx-11" value="" style="endArrow=none;html=1;rounded=0;fontSize=12;startSize=8;endSize=8;curved=1;" edge="1" parent="1">
          <mxGeometry width="50" height="50" relative="1" as="geometry">
            <mxPoint x="271" y="98" as="sourcePoint" />
            <mxPoint x="467" y="98" as="targetPoint" />
          </mxGeometry>
        </mxCell>
        <mxCell id="uxkh0u8G8FAY5bMfTTRx-12" value="" style="endArrow=none;html=1;rounded=0;fontSize=12;startSize=8;endSize=8;curved=1;" edge="1" parent="1">
          <mxGeometry width="50" height="50" relative="1" as="geometry">
            <mxPoint x="-46" y="316" as="sourcePoint" />
            <mxPoint x="150" y="316" as="targetPoint" />
          </mxGeometry>
        </mxCell>
        <mxCell id="uxkh0u8G8FAY5bMfTTRx-13" value="" style="endArrow=none;html=1;rounded=0;fontSize=12;startSize=8;endSize=8;curved=1;" edge="1" parent="1">
          <mxGeometry width="50" height="50" relative="1" as="geometry">
            <mxPoint x="-45" y="360" as="sourcePoint" />
            <mxPoint x="151" y="360" as="targetPoint" />
          </mxGeometry>
        </mxCell>
        <mxCell id="uxkh0u8G8FAY5bMfTTRx-14" value="" style="endArrow=none;html=1;rounded=0;fontSize=12;startSize=8;endSize=8;curved=1;" edge="1" parent="1">
          <mxGeometry width="50" height="50" relative="1" as="geometry">
            <mxPoint x="270" y="318" as="sourcePoint" />
            <mxPoint x="466" y="318" as="targetPoint" />
          </mxGeometry>
        </mxCell>
        <mxCell id="uxkh0u8G8FAY5bMfTTRx-16" value="" style="endArrow=none;html=1;rounded=0;fontSize=12;startSize=8;endSize=8;curved=1;" edge="1" parent="1">
          <mxGeometry width="50" height="50" relative="1" as="geometry">
            <mxPoint x="271" y="348" as="sourcePoint" />
            <mxPoint x="467" y="348" as="targetPoint" />
          </mxGeometry>
        </mxCell>
        <mxCell id="uxkh0u8G8FAY5bMfTTRx-20" value="App" style="text;strokeColor=none;fillColor=none;html=1;align=center;verticalAlign=middle;whiteSpace=wrap;rounded=0;fontSize=16;" vertex="1" parent="1">
          <mxGeometry x="181.5" y="-86" width="60" height="30" as="geometry" />
        </mxCell>
        <mxCell id="uxkh0u8G8FAY5bMfTTRx-22" value="+ Planet mars: string&lt;br&gt;+Explorer astronaut:string ???" style="text;strokeColor=none;fillColor=none;html=1;align=center;verticalAlign=middle;whiteSpace=wrap;rounded=0;fontSize=16;" vertex="1" parent="1">
          <mxGeometry x="125" y="-56" width="176" height="52" as="geometry" />
        </mxCell>
        <mxCell id="uxkh0u8G8FAY5bMfTTRx-23" value="Planet" style="text;strokeColor=none;fillColor=none;html=1;align=center;verticalAlign=middle;whiteSpace=wrap;rounded=0;fontSize=16;" vertex="1" parent="1">
          <mxGeometry x="22.5" y="64" width="60" height="37" as="geometry" />
        </mxCell>
        <mxCell id="uxkh0u8G8FAY5bMfTTRx-25" value="+accept(Explorer explorer)" style="text;strokeColor=none;fillColor=none;html=1;align=center;verticalAlign=middle;whiteSpace=wrap;rounded=0;fontSize=16;" vertex="1" parent="1">
          <mxGeometry x="-41" y="101" width="186" height="86" as="geometry" />
        </mxCell>
        <mxCell id="uxkh0u8G8FAY5bMfTTRx-26" value="Mars" style="text;strokeColor=none;fillColor=none;html=1;align=center;verticalAlign=middle;whiteSpace=wrap;rounded=0;fontSize=16;" vertex="1" parent="1">
          <mxGeometry x="22" y="291" width="60" height="30" as="geometry" />
        </mxCell>
        <mxCell id="uxkh0u8G8FAY5bMfTTRx-27" value="+accept(Explorer explorer)" style="text;strokeColor=none;fillColor=none;html=1;align=center;verticalAlign=middle;whiteSpace=wrap;rounded=0;fontSize=16;" vertex="1" parent="1">
          <mxGeometry x="-41" y="361" width="188" height="47" as="geometry" />
        </mxCell>
        <mxCell id="uxkh0u8G8FAY5bMfTTRx-28" value="Explorer" style="text;strokeColor=none;fillColor=none;html=1;align=center;verticalAlign=middle;whiteSpace=wrap;rounded=0;fontSize=16;" vertex="1" parent="1">
          <mxGeometry x="344" y="71" width="60" height="30" as="geometry" />
        </mxCell>
        <mxCell id="uxkh0u8G8FAY5bMfTTRx-32" value="+visit()&lt;br&gt;+visit(Mars mars)&lt;br&gt;+visit(Planet planet): returnString" style="text;strokeColor=none;fillColor=none;html=1;align=center;verticalAlign=middle;whiteSpace=wrap;rounded=0;fontSize=16;" vertex="1" parent="1">
          <mxGeometry x="271" y="99" width="193" height="88" as="geometry" />
        </mxCell>
        <mxCell id="uxkh0u8G8FAY5bMfTTRx-33" value="HumanExplorer" style="text;strokeColor=none;fillColor=none;html=1;align=center;verticalAlign=middle;whiteSpace=wrap;rounded=0;fontSize=16;" vertex="1" parent="1">
          <mxGeometry x="337.5" y="291" width="60" height="30" as="geometry" />
        </mxCell>
        <mxCell id="uxkh0u8G8FAY5bMfTTRx-37" value="+void visit():returnString&lt;br&gt;+void visit(Mars mars): returnStirng" style="text;strokeColor=none;fillColor=none;html=1;align=center;verticalAlign=middle;whiteSpace=wrap;rounded=0;fontSize=16;" vertex="1" parent="1">
          <mxGeometry x="271" y="349" width="191" height="59" as="geometry" />
        </mxCell>
      </root>
    </mxGraphModel>
  </diagram>
</mxfile>
